<?xml version="1.0" encoding="UTF-8" standalone="no"?>
<!DOCTYPE svg PUBLIC "-//W3C//DTD SVG 1.1//EN"
 "http://www.w3.org/Graphics/SVG/1.1/DTD/svg11.dtd">
<!-- Generated by graphviz version 2.50.0 (0)
 -->
<!-- Pages: 1 -->
<svg width="383pt" height="105pt"
 viewBox="0.00 0.00 383.38 105.00" xmlns="http://www.w3.org/2000/svg" xmlns:xlink="http://www.w3.org/1999/xlink">
<g id="graph0" class="graph" transform="scale(1 1) rotate(0) translate(4 101)">
<polygon fill="white" stroke="transparent" points="-4,4 -4,-101 379.38,-101 379.38,4 -4,4"/>
<!-- poor -->
<g id="node1" class="node">
<title>poor</title>
<ellipse fill="none" stroke="black" cx="31.85" cy="-18" rx="31.7" ry="18"/>
<text text-anchor="middle" x="31.85" y="-14.3" font-family="Times,serif" font-size="14.00">poor</text>
</g>
<!-- poor&#45;&gt;poor -->
<g id="edge1" class="edge">
<title>poor&#45;&gt;poor</title>
<path fill="none" stroke="black" d="M21.22,-35.04C19.05,-44.86 22.59,-54 31.85,-54 37.63,-54 41.19,-50.43 42.51,-45.35"/>
<polygon fill="black" stroke="black" points="46.01,-45.03 42.48,-35.04 39.01,-45.05 46.01,-45.03"/>
<text text-anchor="middle" x="31.85" y="-57.8" font-family="Times,serif" font-size="14.00">0.9</text>
</g>
<!-- middle class -->
<g id="node2" class="node">
<title>middle class</title>
<ellipse fill="none" stroke="black" cx="190.94" cy="-46" rx="68.49" ry="18"/>
<text text-anchor="middle" x="190.94" y="-42.3" font-family="Times,serif" font-size="14.00">middle class</text>
</g>
<!-- poor&#45;&gt;middle class -->
<g id="edge2" class="edge">
<title>poor&#45;&gt;middle class</title>
<path fill="none" stroke="black" d="M58.94,-27.65C66.22,-30.03 74.19,-32.37 81.69,-34 92.38,-36.32 103.75,-38.2 114.97,-39.72"/>
<polygon fill="black" stroke="black" points="114.83,-43.23 125.19,-41.03 115.72,-36.29 114.83,-43.23"/>
<text text-anchor="middle" x="93.19" y="-40.8" font-family="Times,serif" font-size="14.00">0.1</text>
</g>
<!-- middle class&#45;&gt;poor -->
<g id="edge3" class="edge">
<title>middle class&#45;&gt;poor</title>
<path fill="none" stroke="black" d="M155.85,-30.51C140.55,-24.38 122.06,-18.06 104.69,-15 94.63,-13.23 91.91,-14.69 81.69,-15 79.13,-15.08 76.49,-15.18 73.83,-15.3"/>
<polygon fill="black" stroke="black" points="73.39,-11.82 63.58,-15.82 73.75,-18.81 73.39,-11.82"/>
<text text-anchor="middle" x="93.19" y="-18.8" font-family="Times,serif" font-size="14.00">0.4</text>
</g>
<!-- middle class&#45;&gt;middle class -->
<g id="edge4" class="edge">
<title>middle class&#45;&gt;middle class</title>
<path fill="none" stroke="black" d="M173.68,-63.78C170.75,-73.31 176.5,-82 190.94,-82 199.74,-82 205.31,-78.77 207.66,-74.1"/>
<polygon fill="black" stroke="black" points="211.17,-73.95 208.2,-63.78 204.18,-73.59 211.17,-73.95"/>
<text text-anchor="middle" x="190.94" y="-85.8" font-family="Times,serif" font-size="14.00">0.4</text>
</g>
<!-- rich -->
<g id="node3" class="node">
<title>rich</title>
<ellipse fill="none" stroke="black" cx="346.78" cy="-18" rx="28.7" ry="18"/>
<text text-anchor="middle" x="346.78" y="-14.3" font-family="Times,serif" font-size="14.00">rich</text>
</g>
<!-- middle class&#45;&gt;rich -->
<g id="edge5" class="edge">
<title>middle class&#45;&gt;rich</title>
<path fill="none" stroke="black" d="M257.02,-41.21C271.34,-39.48 286.36,-37.15 300.18,-34 304.12,-33.1 308.19,-31.98 312.2,-30.74"/>
<polygon fill="black" stroke="black" points="313.55,-33.98 321.94,-27.51 311.35,-27.34 313.55,-33.98"/>
<text text-anchor="middle" x="288.68" y="-40.8" font-family="Times,serif" font-size="14.00">0.2</text>
</g>
<!-- rich&#45;&gt;poor -->
<g id="edge6" class="edge">
<title>rich&#45;&gt;poor</title>
<path fill="none" stroke="black" d="M319.39,-12.5C302.31,-9.25 279.54,-5.48 259.18,-4 198.68,0.4 183.2,0.4 122.69,-4 104.33,-5.34 99.89,-7.18 81.69,-10 78.69,-10.47 75.59,-10.96 72.46,-11.45"/>
<polygon fill="black" stroke="black" points="71.86,-8.01 62.54,-13.05 72.97,-14.92 71.86,-8.01"/>
<text text-anchor="middle" x="190.94" y="-7.8" font-family="Times,serif" font-size="14.00">0.1</text>
</g>
<!-- rich&#45;&gt;middle class -->
<g id="edge7" class="edge">
<title>rich&#45;&gt;middle class</title>
<path fill="none" stroke="black" d="M318.31,-15.9C312.34,-15.52 306.05,-15.19 300.18,-15 289.97,-14.66 287.25,-13.23 277.18,-15 263.34,-17.44 248.79,-21.94 235.71,-26.78"/>
<polygon fill="black" stroke="black" points="234.09,-23.65 226.02,-30.51 236.61,-30.18 234.09,-23.65"/>
<text text-anchor="middle" x="288.68" y="-18.8" font-family="Times,serif" font-size="14.00">0.1</text>
</g>
<!-- rich&#45;&gt;rich -->
<g id="edge8" class="edge">
<title>rich&#45;&gt;rich</title>
<path fill="none" stroke="black" d="M336.5,-35.04C334.4,-44.86 337.83,-54 346.78,-54 352.37,-54 355.81,-50.43 357.09,-45.35"/>
<polygon fill="black" stroke="black" points="360.59,-45.03 357.06,-35.04 353.59,-45.05 360.59,-45.03"/>
<text text-anchor="middle" x="346.78" y="-57.8" font-family="Times,serif" font-size="14.00">0.8</text>
</g>
</g>
</svg>