<?xml version="1.0" encoding="UTF-8" standalone="no"?>
<!DOCTYPE svg PUBLIC "-//W3C//DTD SVG 1.1//EN"
 "http://www.w3.org/Graphics/SVG/1.1/DTD/svg11.dtd">
<!-- Generated by graphviz version 2.50.0 (0)
 -->
<!-- Pages: 1 -->
<svg width="288pt" height="98pt"
 viewBox="0.00 0.00 288.00 97.96" xmlns="http://www.w3.org/2000/svg" xmlns:xlink="http://www.w3.org/1999/xlink">
<g id="graph0" class="graph" transform="scale(1 1) rotate(0) translate(4 93.96)">
<polygon fill="white" stroke="transparent" points="-4,4 -4,-93.96 284,-93.96 284,4 -4,4"/>
<!-- 1 -->
<g id="node1" class="node">
<title>1</title>
<ellipse fill="none" stroke="black" cx="27" cy="-48.96" rx="27" ry="18"/>
<text text-anchor="middle" x="27" y="-45.26" font-family="Times,serif" font-size="14.00">1</text>
</g>
<!-- 2 -->
<g id="node2" class="node">
<title>2</title>
<ellipse fill="none" stroke="black" cx="253" cy="-45.96" rx="27" ry="18"/>
<text text-anchor="middle" x="253" y="-42.26" font-family="Times,serif" font-size="14.00">2</text>
</g>
<!-- 1&#45;&gt;2 -->
<g id="edge1" class="edge">
<title>1&#45;&gt;2</title>
<path fill="none" stroke="black" d="M50.09,-58.49C57.01,-61.2 64.74,-63.96 72,-65.96 112.82,-77.21 124.86,-77.03 167,-72.96 185.48,-71.18 190.26,-70.45 208,-64.96 212.32,-63.62 216.79,-62 221.15,-60.27"/>
<polygon fill="black" stroke="black" points="222.55,-63.48 230.42,-56.38 219.84,-57.02 222.55,-63.48"/>
<text text-anchor="middle" x="140" y="-78.76" font-family="Times,serif" font-size="14.00">0.7</text>
</g>
<!-- 3 -->
<g id="node3" class="node">
<title>3</title>
<ellipse fill="none" stroke="black" cx="140" cy="-45.96" rx="27" ry="18"/>
<text text-anchor="middle" x="140" y="-42.26" font-family="Times,serif" font-size="14.00">3</text>
</g>
<!-- 1&#45;&gt;3 -->
<g id="edge2" class="edge">
<title>1&#45;&gt;3</title>
<path fill="none" stroke="black" d="M54.02,-48.26C68.53,-47.87 86.83,-47.37 102.72,-46.94"/>
<polygon fill="black" stroke="black" points="102.85,-50.44 112.75,-46.67 102.66,-43.44 102.85,-50.44"/>
<text text-anchor="middle" x="83.5" y="-50.76" font-family="Times,serif" font-size="14.00">0.3</text>
</g>
<!-- 2&#45;&gt;1 -->
<g id="edge3" class="edge">
<title>2&#45;&gt;1</title>
<path fill="none" stroke="black" d="M233.05,-33.41C216.43,-23.21 191.2,-9.62 167,-3.96 143.63,1.5 136.49,0.97 113,-3.96 91.77,-8.42 70.19,-19.94 54.09,-30.21"/>
<polygon fill="black" stroke="black" points="52.15,-27.3 45.74,-35.74 56.01,-33.14 52.15,-27.3"/>
<text text-anchor="middle" x="140" y="-7.76" font-family="Times,serif" font-size="14.00">1</text>
</g>
<!-- 3&#45;&gt;1 -->
<g id="edge4" class="edge">
<title>3&#45;&gt;1</title>
<path fill="none" stroke="black" d="M118.28,-35.04C105.1,-29.42 87.62,-24.42 72,-27.96 67.1,-29.07 62.1,-30.8 57.32,-32.79"/>
<polygon fill="black" stroke="black" points="55.51,-29.77 47.91,-37.15 58.45,-36.12 55.51,-29.77"/>
<text text-anchor="middle" x="83.5" y="-31.76" font-family="Times,serif" font-size="14.00">0.4</text>
</g>
<!-- 3&#45;&gt;2 -->
<g id="edge5" class="edge">
<title>3&#45;&gt;2</title>
<path fill="none" stroke="black" d="M167.02,-45.96C181.53,-45.96 199.83,-45.96 215.72,-45.96"/>
<polygon fill="black" stroke="black" points="215.75,-49.46 225.75,-45.96 215.75,-42.46 215.75,-49.46"/>
<text text-anchor="middle" x="196.5" y="-49.76" font-family="Times,serif" font-size="14.00">0.6</text>
</g>
</g>
</svg>