<?xml version="1.0" encoding="UTF-8" standalone="no"?>
<!DOCTYPE svg PUBLIC "-//W3C//DTD SVG 1.1//EN"
 "http://www.w3.org/Graphics/SVG/1.1/DTD/svg11.dtd">
<!-- Generated by graphviz version 2.50.0 (0)
 -->
<!-- Pages: 1 -->
<svg width="374pt" height="116pt"
 viewBox="0.00 0.00 374.44 116.00" xmlns="http://www.w3.org/2000/svg" xmlns:xlink="http://www.w3.org/1999/xlink">
<g id="graph0" class="graph" transform="scale(1 1) rotate(0) translate(4 112)">
<polygon fill="white" stroke="transparent" points="-4,4 -4,-112 370.44,-112 370.44,4 -4,4"/>
<!-- poor -->
<g id="node1" class="node">
<title>poor</title>
<ellipse fill="none" stroke="black" cx="31.85" cy="-18" rx="31.7" ry="18"/>
<text text-anchor="middle" x="31.85" y="-14.3" font-family="Times,serif" font-size="14.00">poor</text>
</g>
<!-- poor&#45;&gt;poor -->
<g id="edge1" class="edge">
<title>poor&#45;&gt;poor</title>
<path fill="none" stroke="black" d="M61.53,-24.74C72.59,-24.96 81.69,-22.71 81.69,-18 81.69,-14.83 77.58,-12.78 71.53,-11.84"/>
<polygon fill="black" stroke="black" points="71.71,-8.35 61.53,-11.26 71.31,-15.34 71.71,-8.35"/>
</g>
<!-- middle class -->
<g id="node2" class="node">
<title>middle class</title>
<ellipse fill="none" stroke="black" cx="175.85" cy="-90" rx="68.49" ry="18"/>
<text text-anchor="middle" x="175.85" y="-86.3" font-family="Times,serif" font-size="14.00">middle class</text>
</g>
<!-- middle class&#45;&gt;poor -->
<g id="edge2" class="edge">
<title>middle class&#45;&gt;poor</title>
<path fill="none" stroke="black" d="M143.89,-74.02C120.48,-62.32 88.79,-46.47 65.09,-34.62"/>
<polygon fill="black" stroke="black" points="66.62,-31.47 56.11,-30.13 63.49,-37.74 66.62,-31.47"/>
</g>
<!-- middle class&#45;&gt;middle class -->
<g id="edge3" class="edge">
<title>middle class&#45;&gt;middle class</title>
<path fill="none" stroke="black" d="M239.79,-96.49C252.78,-95.79 262.09,-93.62 262.09,-90 262.09,-87.4 257.28,-85.55 249.75,-84.45"/>
<polygon fill="black" stroke="black" points="250.07,-80.96 239.79,-83.51 249.41,-87.93 250.07,-80.96"/>
</g>
<!-- rich -->
<g id="node3" class="node">
<title>rich</title>
<ellipse fill="none" stroke="black" cx="319.85" cy="-18" rx="28.7" ry="18"/>
<text text-anchor="middle" x="319.85" y="-14.3" font-family="Times,serif" font-size="14.00">rich</text>
</g>
<!-- middle class&#45;&gt;rich -->
<g id="edge4" class="edge">
<title>middle class&#45;&gt;rich</title>
<path fill="none" stroke="black" d="M217.92,-75.77C242.32,-64.73 272.28,-49.54 293.41,-37.41"/>
<polygon fill="black" stroke="black" points="295.32,-40.34 302.15,-32.25 291.76,-34.31 295.32,-40.34"/>
</g>
<!-- rich&#45;&gt;poor -->
<g id="edge5" class="edge">
<title>rich&#45;&gt;poor</title>
<path fill="none" stroke="black" d="M291.18,-18C240.18,-18 133.47,-18 74.06,-18"/>
<polygon fill="black" stroke="black" points="73.89,-14.5 63.89,-18 73.89,-21.5 73.89,-14.5"/>
</g>
<!-- rich&#45;&gt;middle class -->
<g id="edge6" class="edge">
<title>rich&#45;&gt;middle class</title>
<path fill="none" stroke="black" d="M293.42,-25.41C269.07,-35.53 232.95,-53.35 207.16,-67.83"/>
<polygon fill="black" stroke="black" points="205.1,-64.97 198.17,-72.99 208.59,-71.04 205.1,-64.97"/>
</g>
<!-- rich&#45;&gt;rich -->
<g id="edge7" class="edge">
<title>rich&#45;&gt;rich</title>
<path fill="none" stroke="black" d="M346.66,-24.71C357.42,-25.09 366.44,-22.85 366.44,-18 366.44,-14.82 362.56,-12.76 356.84,-11.83"/>
<polygon fill="black" stroke="black" points="356.83,-8.32 346.66,-11.29 356.46,-15.31 356.83,-8.32"/>
</g>
</g>
</svg>