<?xml version="1.0" encoding="UTF-8" standalone="no"?>
<!DOCTYPE svg PUBLIC "-//W3C//DTD SVG 1.1//EN"
 "http://www.w3.org/Graphics/SVG/1.1/DTD/svg11.dtd">
<!-- Generated by graphviz version 2.50.0 (0)
 -->
<!-- Pages: 1 -->
<svg width="324pt" height="81pt"
 viewBox="0.00 0.00 324.00 80.77" xmlns="http://www.w3.org/2000/svg" xmlns:xlink="http://www.w3.org/1999/xlink">
<g id="graph0" class="graph" transform="scale(1 1) rotate(0) translate(4 76.77)">
<polygon fill="white" stroke="transparent" points="-4,4 -4,-76.77 320,-76.77 320,4 -4,4"/>
<!-- ng -->
<g id="node1" class="node">
<title>ng</title>
<ellipse fill="none" stroke="black" cx="27" cy="-21.77" rx="27" ry="18"/>
<text text-anchor="middle" x="27" y="-18.07" font-family="Times,serif" font-size="14.00">ng</text>
</g>
<!-- ng&#45;&gt;ng -->
<g id="edge1" class="edge">
<title>ng&#45;&gt;ng</title>
<path fill="none" stroke="black" d="M15.75,-38.43C13.25,-48.39 17,-57.77 27,-57.77 33.41,-57.77 37.25,-53.92 38.52,-48.53"/>
<polygon fill="black" stroke="black" points="42.02,-48.33 38.25,-38.43 35.02,-48.52 42.02,-48.33"/>
<text text-anchor="middle" x="27" y="-61.57" font-family="Times,serif" font-size="14.00">0.971</text>
</g>
<!-- mr -->
<g id="node2" class="node">
<title>mr</title>
<ellipse fill="none" stroke="black" cx="158" cy="-21.77" rx="27" ry="18"/>
<text text-anchor="middle" x="158" y="-18.07" font-family="Times,serif" font-size="14.00">mr</text>
</g>
<!-- ng&#45;&gt;mr -->
<g id="edge2" class="edge">
<title>ng&#45;&gt;mr</title>
<path fill="none" stroke="black" d="M54.11,-21.77C73.25,-21.77 99.49,-21.77 120.68,-21.77"/>
<polygon fill="black" stroke="black" points="120.93,-25.27 130.93,-21.77 120.93,-18.27 120.93,-25.27"/>
<text text-anchor="middle" x="92.5" y="-25.57" font-family="Times,serif" font-size="14.00">0.029</text>
</g>
<!-- mr&#45;&gt;ng -->
<g id="edge3" class="edge">
<title>mr&#45;&gt;ng</title>
<path fill="none" stroke="black" d="M136.09,-10.67C128.97,-7.46 120.82,-4.38 113,-2.77 95.15,0.92 89.85,0.92 72,-2.77 67.48,-3.7 62.85,-5.12 58.37,-6.78"/>
<polygon fill="black" stroke="black" points="56.83,-3.63 48.91,-10.67 59.49,-10.1 56.83,-3.63"/>
<text text-anchor="middle" x="92.5" y="-6.57" font-family="Times,serif" font-size="14.00">0.145</text>
</g>
<!-- mr&#45;&gt;mr -->
<g id="edge4" class="edge">
<title>mr&#45;&gt;mr</title>
<path fill="none" stroke="black" d="M146.75,-38.43C144.25,-48.39 148,-57.77 158,-57.77 164.41,-57.77 168.25,-53.92 169.52,-48.53"/>
<polygon fill="black" stroke="black" points="173.02,-48.33 169.25,-38.43 166.02,-48.52 173.02,-48.33"/>
<text text-anchor="middle" x="158" y="-61.57" font-family="Times,serif" font-size="14.00">0.778</text>
</g>
<!-- sr -->
<g id="node3" class="node">
<title>sr</title>
<ellipse fill="none" stroke="black" cx="289" cy="-21.77" rx="27" ry="18"/>
<text text-anchor="middle" x="289" y="-18.07" font-family="Times,serif" font-size="14.00">sr</text>
</g>
<!-- mr&#45;&gt;sr -->
<g id="edge5" class="edge">
<title>mr&#45;&gt;sr</title>
<path fill="none" stroke="black" d="M185.11,-21.77C204.25,-21.77 230.49,-21.77 251.68,-21.77"/>
<polygon fill="black" stroke="black" points="251.93,-25.27 261.93,-21.77 251.93,-18.27 251.93,-25.27"/>
<text text-anchor="middle" x="223.5" y="-25.57" font-family="Times,serif" font-size="14.00">0.077</text>
</g>
<!-- sr&#45;&gt;mr -->
<g id="edge6" class="edge">
<title>sr&#45;&gt;mr</title>
<path fill="none" stroke="black" d="M267.09,-10.67C259.97,-7.46 251.82,-4.38 244,-2.77 226.15,0.92 220.85,0.92 203,-2.77 198.48,-3.7 193.85,-5.12 189.37,-6.78"/>
<polygon fill="black" stroke="black" points="187.83,-3.63 179.91,-10.67 190.49,-10.1 187.83,-3.63"/>
<text text-anchor="middle" x="223.5" y="-6.57" font-family="Times,serif" font-size="14.00">0.508</text>
</g>
<!-- sr&#45;&gt;sr -->
<g id="edge7" class="edge">
<title>sr&#45;&gt;sr</title>
<path fill="none" stroke="black" d="M277.75,-38.43C275.25,-48.39 279,-57.77 289,-57.77 295.41,-57.77 299.25,-53.92 300.52,-48.53"/>
<polygon fill="black" stroke="black" points="304.02,-48.33 300.25,-38.43 297.02,-48.52 304.02,-48.33"/>
<text text-anchor="middle" x="289" y="-61.57" font-family="Times,serif" font-size="14.00">0.492</text>
</g>
</g>
</svg>