<?xml version="1.0" encoding="UTF-8" standalone="no"?>
<!DOCTYPE svg PUBLIC "-//W3C//DTD SVG 1.1//EN"
 "http://www.w3.org/Graphics/SVG/1.1/DTD/svg11.dtd">
<!-- Generated by graphviz version 2.50.0 (0)
 -->
<!-- Pages: 1 -->
<svg width="175pt" height="47pt"
 viewBox="0.00 0.00 175.00 46.55" xmlns="http://www.w3.org/2000/svg" xmlns:xlink="http://www.w3.org/1999/xlink">
<g id="graph0" class="graph" transform="scale(1 1) rotate(0) translate(4 42.55)">
<polygon fill="white" stroke="transparent" points="-4,4 -4,-42.55 171,-42.55 171,4 -4,4"/>
<!-- 0 -->
<g id="node1" class="node">
<title>0</title>
<ellipse fill="none" stroke="black" cx="27" cy="-20.55" rx="27" ry="18"/>
<text text-anchor="middle" x="27" y="-16.85" font-family="Times,serif" font-size="14.00">0</text>
</g>
<!-- 1 -->
<g id="node2" class="node">
<title>1</title>
<ellipse fill="none" stroke="black" cx="140" cy="-20.55" rx="27" ry="18"/>
<text text-anchor="middle" x="140" y="-16.85" font-family="Times,serif" font-size="14.00">1</text>
</g>
<!-- 0&#45;&gt;1 -->
<g id="edge1" class="edge">
<title>0&#45;&gt;1</title>
<path fill="none" stroke="red" d="M54.02,-20.55C68.53,-20.55 86.83,-20.55 102.72,-20.55"/>
<polygon fill="red" stroke="red" points="102.75,-24.05 112.75,-20.55 102.75,-17.05 102.75,-24.05"/>
<text text-anchor="middle" x="83.5" y="-24.35" font-family="Times,serif" font-size="14.00">1.0</text>
</g>
<!-- 1&#45;&gt;0 -->
<g id="edge2" class="edge">
<title>1&#45;&gt;0</title>
<path fill="none" stroke="red" d="M118.09,-9.46C110.97,-6.24 102.82,-3.17 95,-1.55 84.99,0.52 82.01,0.52 72,-1.55 67.48,-2.49 62.85,-3.91 58.37,-5.56"/>
<polygon fill="red" stroke="red" points="56.83,-2.41 48.91,-9.46 59.49,-8.89 56.83,-2.41"/>
<text text-anchor="middle" x="83.5" y="-5.35" font-family="Times,serif" font-size="14.00">1.0</text>
</g>
</g>
</svg>