<?xml version="1.0" encoding="UTF-8" standalone="no"?>
<!DOCTYPE svg PUBLIC "-//W3C//DTD SVG 1.1//EN"
 "http://www.w3.org/Graphics/SVG/1.1/DTD/svg11.dtd">
<!-- Generated by graphviz version 2.50.0 (0)
 -->
<!-- Pages: 1 -->
<svg width="350pt" height="263pt"
 viewBox="0.00 0.00 350.00 262.64" xmlns="http://www.w3.org/2000/svg" xmlns:xlink="http://www.w3.org/1999/xlink">
<g id="graph0" class="graph" transform="scale(1 1) rotate(0) translate(4 258.64)">
<polygon fill="white" stroke="transparent" points="-4,4 -4,-258.64 346,-258.64 346,4 -4,4"/>
<!-- 1 -->
<g id="node1" class="node">
<title>1</title>
<ellipse fill="none" stroke="black" cx="99" cy="-20.64" rx="27" ry="18"/>
<text text-anchor="middle" x="99" y="-16.94" font-family="Times,serif" font-size="14.00">1</text>
</g>
<!-- 2 -->
<g id="node2" class="node">
<title>2</title>
<ellipse fill="none" stroke="black" cx="243" cy="-20.64" rx="27" ry="18"/>
<text text-anchor="middle" x="243" y="-16.94" font-family="Times,serif" font-size="14.00">2</text>
</g>
<!-- 1&#45;&gt;2 -->
<g id="edge1" class="edge">
<title>1&#45;&gt;2</title>
<path fill="none" stroke="black" d="M125.08,-25.98C148.01,-27.63 181.62,-27.83 207.1,-26.57"/>
<polygon fill="black" stroke="black" points="207.35,-30.06 217.12,-25.96 206.92,-23.07 207.35,-30.06"/>
<text text-anchor="middle" x="152.09" y="-30.07" font-family="Times,serif" font-size="14.00">100</text>
</g>
<!-- 2&#45;&gt;1 -->
<g id="edge2" class="edge">
<title>2&#45;&gt;1</title>
<path fill="none" stroke="black" d="M216.92,-15.3C193.99,-13.64 160.38,-13.44 134.9,-14.7"/>
<polygon fill="black" stroke="black" points="134.65,-11.21 124.88,-15.31 135.08,-18.2 134.65,-11.21"/>
<text text-anchor="middle" x="166.41" y="-3.8" font-family="Times,serif" font-size="14.00">50</text>
</g>
<!-- 3 -->
<g id="node3" class="node">
<title>3</title>
<ellipse fill="none" stroke="black" cx="315" cy="-164.64" rx="27" ry="18"/>
<text text-anchor="middle" x="315" y="-160.94" font-family="Times,serif" font-size="14.00">3</text>
</g>
<!-- 2&#45;&gt;3 -->
<g id="edge3" class="edge">
<title>2&#45;&gt;3</title>
<path fill="none" stroke="black" d="M251.54,-37.72C263.92,-62.49 286.98,-108.59 301.63,-137.89"/>
<polygon fill="black" stroke="black" points="298.64,-139.75 306.24,-147.12 304.9,-136.61 298.64,-139.75"/>
<text text-anchor="middle" x="262.58" y="-91.6" font-family="Times,serif" font-size="14.00">200</text>
</g>
<!-- 4 -->
<g id="node4" class="node">
<title>4</title>
<ellipse fill="none" stroke="black" cx="171" cy="-236.64" rx="27" ry="18"/>
<text text-anchor="middle" x="171" y="-232.94" font-family="Times,serif" font-size="14.00">4</text>
</g>
<!-- 3&#45;&gt;4 -->
<g id="edge4" class="edge">
<title>3&#45;&gt;4</title>
<path fill="none" stroke="black" d="M293.13,-175.57C268.78,-187.75 229.24,-207.52 201.77,-221.25"/>
<polygon fill="black" stroke="black" points="199.98,-218.23 192.6,-225.83 203.11,-224.49 199.98,-218.23"/>
<text text-anchor="middle" x="215.45" y="-202.21" font-family="Times,serif" font-size="14.00">	100</text>
</g>
<!-- 4&#45;&gt;2 -->
<g id="edge5" class="edge">
<title>4&#45;&gt;2</title>
<path fill="none" stroke="black" d="M176.89,-218.96C189.45,-181.29 218.92,-92.88 233.9,-47.92"/>
<polygon fill="black" stroke="black" points="237.29,-48.85 237.13,-38.25 230.64,-46.63 237.29,-48.85"/>
<text text-anchor="middle" x="191.4" y="-137.24" font-family="Times,serif" font-size="14.00">500</text>
</g>
<!-- 5 -->
<g id="node5" class="node">
<title>5</title>
<ellipse fill="none" stroke="black" cx="27" cy="-164.64" rx="27" ry="18"/>
<text text-anchor="middle" x="27" y="-160.94" font-family="Times,serif" font-size="14.00">5</text>
</g>
<!-- 4&#45;&gt;5 -->
<g id="edge6" class="edge">
<title>4&#45;&gt;5</title>
<path fill="none" stroke="black" d="M153.72,-222.64C131,-208.76 90.67,-188.25 61.58,-175.53"/>
<polygon fill="black" stroke="black" points="62.76,-172.22 52.19,-171.53 60.02,-178.67 62.76,-172.22"/>
<text text-anchor="middle" x="89.15" y="-171.88" font-family="Times,serif" font-size="14.00">50	</text>
</g>
<!-- 5&#45;&gt;1 -->
<g id="edge7" class="edge">
<title>5&#45;&gt;1</title>
<path fill="none" stroke="black" d="M35.54,-147.55C47.92,-122.79 70.98,-76.68 85.63,-47.38"/>
<polygon fill="black" stroke="black" points="88.9,-48.66 90.24,-38.15 82.64,-45.53 88.9,-48.66"/>
<text text-anchor="middle" x="46.58" y="-101.27" font-family="Times,serif" font-size="14.00">150</text>
</g>
<!-- 5&#45;&gt;3 -->
<g id="edge8" class="edge">
<title>5&#45;&gt;3</title>
<path fill="none" stroke="black" d="M54.09,-164.64C105.77,-164.64 218.49,-164.64 277.42,-164.64"/>
<polygon fill="black" stroke="black" points="277.77,-168.14 287.77,-164.64 277.77,-161.14 277.77,-168.14"/>
<text text-anchor="middle" x="151.76" y="-168.44" font-family="Times,serif" font-size="14.00">250</text>
</g>
<!-- 5&#45;&gt;4 -->
<g id="edge9" class="edge">
<title>5&#45;&gt;4</title>
<path fill="none" stroke="black" d="M44.28,-178.63C67,-192.51 107.33,-213.02 136.42,-225.75"/>
<polygon fill="black" stroke="black" points="135.24,-229.05 145.81,-229.74 137.98,-222.61 135.24,-229.05"/>
<text text-anchor="middle" x="76.35" y="-205.99" font-family="Times,serif" font-size="14.00">300</text>
</g>
</g>
</svg>