<?xml version="1.0" encoding="UTF-8" standalone="no"?>
<!DOCTYPE svg PUBLIC "-//W3C//DTD SVG 1.1//EN"
 "http://www.w3.org/Graphics/SVG/1.1/DTD/svg11.dtd">
<!-- Generated by graphviz version 2.50.0 (0)
 -->
<!-- Pages: 1 -->
<svg width="267pt" height="164pt"
 viewBox="0.00 0.00 267.18 164.00" xmlns="http://www.w3.org/2000/svg" xmlns:xlink="http://www.w3.org/1999/xlink">
<g id="graph0" class="graph" transform="scale(1 1) rotate(0) translate(4 160)">
<polygon fill="white" stroke="transparent" points="-4,4 -4,-160 263.18,-160 263.18,4 -4,4"/>
<!-- poor -->
<g id="node1" class="node">
<title>poor</title>
<ellipse fill="none" stroke="black" cx="227.34" cy="-105" rx="31.7" ry="18"/>
<text text-anchor="middle" x="227.34" y="-101.3" font-family="Times,serif" font-size="14.00">poor</text>
</g>
<!-- poor&#45;&gt;poor -->
<g id="edge1" class="edge">
<title>poor&#45;&gt;poor</title>
<path fill="none" stroke="black" d="M216.7,-122.04C214.53,-131.86 218.08,-141 227.34,-141 233.12,-141 236.68,-137.43 238,-132.35"/>
<polygon fill="black" stroke="black" points="241.5,-132.03 237.97,-122.04 234.5,-132.05 241.5,-132.03"/>
<text text-anchor="middle" x="227.34" y="-144.8" font-family="Times,serif" font-size="14.00">1.0</text>
</g>
<!-- middle class -->
<g id="node2" class="node">
<title>middle class</title>
<ellipse fill="none" stroke="black" cx="68.24" cy="-56" rx="68.49" ry="18"/>
<text text-anchor="middle" x="68.24" y="-52.3" font-family="Times,serif" font-size="14.00">middle class</text>
</g>
<!-- middle class&#45;&gt;poor -->
<g id="edge2" class="edge">
<title>middle class&#45;&gt;poor</title>
<path fill="none" stroke="black" d="M113,-69.65C137.04,-77.15 166.53,-86.35 189.4,-93.48"/>
<polygon fill="black" stroke="black" points="188.5,-96.86 199.08,-96.5 190.58,-90.18 188.5,-96.86"/>
<text text-anchor="middle" x="165.99" y="-92.8" font-family="Times,serif" font-size="14.00">0.1</text>
</g>
<!-- middle class&#45;&gt;middle class -->
<g id="edge3" class="edge">
<title>middle class&#45;&gt;middle class</title>
<path fill="none" stroke="black" d="M50.99,-73.78C48.05,-83.31 53.81,-92 68.24,-92 77.04,-92 82.61,-88.77 84.96,-84.1"/>
<polygon fill="black" stroke="black" points="88.47,-83.95 85.5,-73.78 81.48,-83.59 88.47,-83.95"/>
<text text-anchor="middle" x="68.24" y="-95.8" font-family="Times,serif" font-size="14.00">0.8</text>
</g>
<!-- rich -->
<g id="node3" class="node">
<title>rich</title>
<ellipse fill="none" stroke="black" cx="227.34" cy="-18" rx="28.7" ry="18"/>
<text text-anchor="middle" x="227.34" y="-14.3" font-family="Times,serif" font-size="14.00">rich</text>
</g>
<!-- middle class&#45;&gt;rich -->
<g id="edge4" class="edge">
<title>middle class&#45;&gt;rich</title>
<path fill="none" stroke="black" d="M125.15,-45.92C142.06,-42.53 160.62,-38.46 177.49,-34 182.3,-32.73 187.34,-31.25 192.27,-29.71"/>
<polygon fill="black" stroke="black" points="193.7,-32.93 202.15,-26.54 191.56,-26.27 193.7,-32.93"/>
<text text-anchor="middle" x="165.99" y="-42.8" font-family="Times,serif" font-size="14.00">0.1</text>
</g>
<!-- rich&#45;&gt;middle class -->
<g id="edge5" class="edge">
<title>rich&#45;&gt;middle class</title>
<path fill="none" stroke="black" d="M199.41,-13.54C185.79,-12.12 169.09,-11.67 154.49,-15 137.25,-18.93 119.44,-26.81 104.58,-34.61"/>
<polygon fill="black" stroke="black" points="102.85,-31.57 95.74,-39.43 106.2,-37.72 102.85,-31.57"/>
<text text-anchor="middle" x="165.99" y="-18.8" font-family="Times,serif" font-size="14.00">0.2</text>
</g>
<!-- rich&#45;&gt;rich -->
<g id="edge6" class="edge">
<title>rich&#45;&gt;rich</title>
<path fill="none" stroke="black" d="M216.7,-35.04C214.53,-44.86 218.08,-54 227.34,-54 233.12,-54 236.68,-50.43 238,-45.35"/>
<polygon fill="black" stroke="black" points="241.5,-45.03 237.97,-35.04 234.5,-45.05 241.5,-45.03"/>
<text text-anchor="middle" x="227.34" y="-57.8" font-family="Times,serif" font-size="14.00">0.8</text>
</g>
</g>
</svg>