<?xml version="1.0" encoding="UTF-8" standalone="no"?>
<!DOCTYPE svg PUBLIC "-//W3C//DTD SVG 1.1//EN"
 "http://www.w3.org/Graphics/SVG/1.1/DTD/svg11.dtd">
<!-- Generated by graphviz version 2.50.0 (0)
 -->
<!-- Pages: 1 -->
<svg width="350pt" height="263pt"
 viewBox="0.00 0.00 350.00 262.64" xmlns="http://www.w3.org/2000/svg" xmlns:xlink="http://www.w3.org/1999/xlink">
<g id="graph0" class="graph" transform="scale(1 1) rotate(0) translate(4 258.64)">
<polygon fill="white" stroke="transparent" points="-4,4 -4,-258.64 346,-258.64 346,4 -4,4"/>
<!-- 1 -->
<g id="node1" class="node">
<title>1</title>
<ellipse fill="none" stroke="black" cx="99" cy="-20.64" rx="27" ry="18"/>
<text text-anchor="middle" x="99" y="-16.94" font-family="Times,serif" font-size="14.00">1</text>
</g>
<!-- 2 -->
<g id="node2" class="node">
<title>2</title>
<ellipse fill="none" stroke="black" cx="243" cy="-20.64" rx="27" ry="18"/>
<text text-anchor="middle" x="243" y="-16.94" font-family="Times,serif" font-size="14.00">2</text>
</g>
<!-- 1&#45;&gt;2 -->
<g id="edge1" class="edge">
<title>1&#45;&gt;2</title>
<path fill="none" stroke="black" d="M125.08,-25.98C148.01,-27.63 181.62,-27.83 207.1,-26.57"/>
<polygon fill="black" stroke="black" points="207.35,-30.06 217.12,-25.96 206.92,-23.07 207.35,-30.06"/>
<text text-anchor="middle" x="156.59" y="-30.07" font-family="Times,serif" font-size="14.00">50</text>
</g>
<!-- 5 -->
<g id="node5" class="node">
<title>5</title>
<ellipse fill="none" stroke="black" cx="27" cy="-164.64" rx="27" ry="18"/>
<text text-anchor="middle" x="27" y="-160.94" font-family="Times,serif" font-size="14.00">5</text>
</g>
<!-- 1&#45;&gt;5 -->
<g id="edge2" class="edge">
<title>1&#45;&gt;5</title>
<path fill="none" stroke="black" d="M90.46,-37.72C78.08,-62.49 55.02,-108.59 40.37,-137.89"/>
<polygon fill="black" stroke="black" points="37.1,-136.61 35.76,-147.12 43.36,-139.75 37.1,-136.61"/>
<text text-anchor="middle" x="51.42" y="-91.6" font-family="Times,serif" font-size="14.00">150</text>
</g>
<!-- 2&#45;&gt;1 -->
<g id="edge3" class="edge">
<title>2&#45;&gt;1</title>
<path fill="none" stroke="black" d="M216.92,-15.3C193.99,-13.64 160.38,-13.44 134.9,-14.7"/>
<polygon fill="black" stroke="black" points="134.65,-11.21 124.88,-15.31 135.08,-18.2 134.65,-11.21"/>
<text text-anchor="middle" x="161.91" y="-3.8" font-family="Times,serif" font-size="14.00">100</text>
</g>
<!-- 4 -->
<g id="node4" class="node">
<title>4</title>
<ellipse fill="none" stroke="black" cx="171" cy="-236.64" rx="27" ry="18"/>
<text text-anchor="middle" x="171" y="-232.94" font-family="Times,serif" font-size="14.00">4</text>
</g>
<!-- 2&#45;&gt;4 -->
<g id="edge4" class="edge">
<title>2&#45;&gt;4</title>
<path fill="none" stroke="black" d="M237.11,-38.31C224.55,-75.98 195.08,-164.39 180.1,-209.35"/>
<polygon fill="black" stroke="black" points="176.71,-208.42 176.87,-219.02 183.36,-210.64 176.71,-208.42"/>
<text text-anchor="middle" x="194.6" y="-127.63" font-family="Times,serif" font-size="14.00">500</text>
</g>
<!-- 3 -->
<g id="node3" class="node">
<title>3</title>
<ellipse fill="none" stroke="black" cx="315" cy="-164.64" rx="27" ry="18"/>
<text text-anchor="middle" x="315" y="-160.94" font-family="Times,serif" font-size="14.00">3</text>
</g>
<!-- 3&#45;&gt;2 -->
<g id="edge5" class="edge">
<title>3&#45;&gt;2</title>
<path fill="none" stroke="black" d="M306.46,-147.55C294.08,-122.79 271.02,-76.68 256.37,-47.38"/>
<polygon fill="black" stroke="black" points="259.36,-45.53 251.76,-38.15 253.1,-48.66 259.36,-45.53"/>
<text text-anchor="middle" x="267.42" y="-101.27" font-family="Times,serif" font-size="14.00">200</text>
</g>
<!-- 3&#45;&gt;5 -->
<g id="edge6" class="edge">
<title>3&#45;&gt;5</title>
<path fill="none" stroke="black" d="M287.91,-164.64C236.23,-164.64 123.51,-164.64 64.58,-164.64"/>
<polygon fill="black" stroke="black" points="64.23,-161.14 54.23,-164.64 64.23,-168.14 64.23,-161.14"/>
<text text-anchor="middle" x="162.24" y="-168.44" font-family="Times,serif" font-size="14.00">250</text>
</g>
<!-- 4&#45;&gt;3 -->
<g id="edge7" class="edge">
<title>4&#45;&gt;3</title>
<path fill="none" stroke="black" d="M192.87,-225.7C217.22,-213.52 256.76,-193.75 284.23,-180.02"/>
<polygon fill="black" stroke="black" points="286.02,-183.04 293.4,-175.44 282.89,-176.78 286.02,-183.04"/>
<text text-anchor="middle" x="206.55" y="-206.66" font-family="Times,serif" font-size="14.00">	100</text>
</g>
<!-- 4&#45;&gt;5 -->
<g id="edge8" class="edge">
<title>4&#45;&gt;5</title>
<path fill="none" stroke="black" d="M153.72,-222.64C131,-208.76 90.67,-188.25 61.58,-175.53"/>
<polygon fill="black" stroke="black" points="62.76,-172.22 52.19,-171.53 60.02,-178.67 62.76,-172.22"/>
<text text-anchor="middle" x="89.15" y="-171.88" font-family="Times,serif" font-size="14.00">300	</text>
</g>
<!-- 5&#45;&gt;4 -->
<g id="edge9" class="edge">
<title>5&#45;&gt;4</title>
<path fill="none" stroke="black" d="M44.28,-178.63C67,-192.51 107.33,-213.02 136.42,-225.75"/>
<polygon fill="black" stroke="black" points="135.24,-229.05 145.81,-229.74 137.98,-222.61 135.24,-229.05"/>
<text text-anchor="middle" x="80.85" y="-205.99" font-family="Times,serif" font-size="14.00">50</text>
</g>
</g>
</svg>