<?xml version="1.0" encoding="UTF-8" standalone="no"?>
<!DOCTYPE svg PUBLIC "-//W3C//DTD SVG 1.1//EN"
 "http://www.w3.org/Graphics/SVG/1.1/DTD/svg11.dtd">
<!-- Generated by graphviz version 2.50.0 (0)
 -->
<!-- Pages: 1 -->
<svg width="459pt" height="126pt"
 viewBox="0.00 0.00 458.57 126.40" xmlns="http://www.w3.org/2000/svg" xmlns:xlink="http://www.w3.org/1999/xlink">
<g id="graph0" class="graph" transform="scale(1 1) rotate(0) translate(4 122.4)">
<polygon fill="white" stroke="transparent" points="-4,4 -4,-122.4 454.57,-122.4 454.57,4 -4,4"/>
<!-- Growth -->
<g id="node1" class="node">
<title>Growth</title>
<ellipse fill="none" stroke="black" cx="45.5" cy="-22.4" rx="45.49" ry="18"/>
<text text-anchor="middle" x="45.5" y="-18.7" font-family="Times,serif" font-size="14.00">Growth</text>
</g>
<!-- Growth&#45;&gt;Growth -->
<g id="edge1" class="edge">
<title>Growth&#45;&gt;Growth</title>
<path fill="none" stroke="black" d="M31.57,-39.81C28.97,-49.48 33.61,-58.4 45.5,-58.4 52.92,-58.4 57.52,-54.91 59.29,-49.94"/>
<polygon fill="black" stroke="black" points="62.79,-49.85 59.42,-39.81 55.79,-49.76 62.79,-49.85"/>
<text text-anchor="middle" x="45.5" y="-62.2" font-family="Times,serif" font-size="14.00">0.68</text>
</g>
<!-- Stagnation -->
<g id="node2" class="node">
<title>Stagnation</title>
<ellipse fill="none" stroke="black" cx="220.74" cy="-67.4" rx="61.99" ry="18"/>
<text text-anchor="middle" x="220.74" y="-63.7" font-family="Times,serif" font-size="14.00">Stagnation</text>
</g>
<!-- Growth&#45;&gt;Stagnation -->
<g id="edge2" class="edge">
<title>Growth&#45;&gt;Stagnation</title>
<path fill="none" stroke="black" d="M70.21,-37.64C81.52,-44.19 95.5,-51.27 108.99,-55.4 121.74,-59.3 135.65,-61.97 149.18,-63.78"/>
<polygon fill="black" stroke="black" points="149.07,-67.3 159.42,-65.02 149.91,-60.35 149.07,-67.3"/>
<text text-anchor="middle" x="124.99" y="-65.2" font-family="Times,serif" font-size="14.00">0.12</text>
</g>
<!-- Collapse -->
<g id="node3" class="node">
<title>Collapse</title>
<ellipse fill="none" stroke="black" cx="400.53" cy="-22.4" rx="50.09" ry="18"/>
<text text-anchor="middle" x="400.53" y="-18.7" font-family="Times,serif" font-size="14.00">Collapse</text>
</g>
<!-- Growth&#45;&gt;Collapse -->
<g id="edge3" class="edge">
<title>Growth&#45;&gt;Collapse</title>
<path fill="none" stroke="black" d="M91.21,-22.4C154.43,-22.4 270.06,-22.4 340.34,-22.4"/>
<polygon fill="black" stroke="black" points="340.37,-25.9 350.37,-22.4 340.37,-18.9 340.37,-25.9"/>
<text text-anchor="middle" x="220.74" y="-26.2" font-family="Times,serif" font-size="14.00">0.20</text>
</g>
<!-- Stagnation&#45;&gt;Growth -->
<g id="edge5" class="edge">
<title>Stagnation&#45;&gt;Growth</title>
<path fill="none" stroke="black" d="M186.58,-52.4C172.73,-46.65 156.32,-40.49 140.99,-36.4 127.84,-32.88 113.41,-30.18 99.87,-28.14"/>
<polygon fill="black" stroke="black" points="100.12,-24.64 89.73,-26.7 99.13,-31.57 100.12,-24.64"/>
<text text-anchor="middle" x="124.99" y="-40.2" font-family="Times,serif" font-size="14.00">0.50</text>
</g>
<!-- Stagnation&#45;&gt;Stagnation -->
<g id="edge4" class="edge">
<title>Stagnation&#45;&gt;Stagnation</title>
<path fill="none" stroke="black" d="M203.95,-84.81C200.82,-94.48 206.42,-103.4 220.74,-103.4 229.69,-103.4 235.23,-99.91 237.36,-94.94"/>
<polygon fill="black" stroke="black" points="240.86,-94.86 237.52,-84.81 233.86,-94.75 240.86,-94.86"/>
<text text-anchor="middle" x="220.74" y="-107.2" font-family="Times,serif" font-size="14.00">0.24</text>
</g>
<!-- Stagnation&#45;&gt;Collapse -->
<g id="edge6" class="edge">
<title>Stagnation&#45;&gt;Collapse</title>
<path fill="none" stroke="black" d="M281.97,-64.72C298.56,-62.94 316.42,-60.06 332.48,-55.4 343.35,-52.24 354.61,-47.4 364.72,-42.39"/>
<polygon fill="black" stroke="black" points="366.35,-45.48 373.64,-37.78 363.14,-39.26 366.35,-45.48"/>
<text text-anchor="middle" x="316.48" y="-65.2" font-family="Times,serif" font-size="14.00">0.26</text>
</g>
<!-- Collapse&#45;&gt;Growth -->
<g id="edge9" class="edge">
<title>Collapse&#45;&gt;Growth</title>
<path fill="none" stroke="black" d="M356.65,-13.74C334.59,-9.72 307.21,-5.39 282.48,-3.4 227.77,1.02 213.68,1.19 158.99,-3.4 138.15,-5.14 115.36,-8.68 95.78,-12.24"/>
<polygon fill="black" stroke="black" points="95.05,-8.81 85.86,-14.09 96.33,-15.69 95.05,-8.81"/>
<text text-anchor="middle" x="220.74" y="-7.2" font-family="Times,serif" font-size="14.00">0.36</text>
</g>
<!-- Collapse&#45;&gt;Stagnation -->
<g id="edge8" class="edge">
<title>Collapse&#45;&gt;Stagnation</title>
<path fill="none" stroke="black" d="M351.97,-26.82C335.5,-28.96 317.02,-32.04 300.48,-36.4 288.49,-39.56 275.85,-44 264.29,-48.54"/>
<polygon fill="black" stroke="black" points="262.84,-45.35 254.88,-52.35 265.46,-51.84 262.84,-45.35"/>
<text text-anchor="middle" x="316.48" y="-40.2" font-family="Times,serif" font-size="14.00">0.18</text>
</g>
<!-- Collapse&#45;&gt;Collapse -->
<g id="edge7" class="edge">
<title>Collapse&#45;&gt;Collapse</title>
<path fill="none" stroke="black" d="M385.53,-39.81C382.73,-49.48 387.73,-58.4 400.53,-58.4 408.52,-58.4 413.48,-54.91 415.38,-49.94"/>
<polygon fill="black" stroke="black" points="418.88,-49.85 415.52,-39.81 411.88,-49.76 418.88,-49.85"/>
<text text-anchor="middle" x="400.53" y="-62.2" font-family="Times,serif" font-size="14.00">0.46</text>
</g>
</g>
</svg>