<?xml version="1.0" encoding="UTF-8" standalone="no"?>
<!DOCTYPE svg PUBLIC "-//W3C//DTD SVG 1.1//EN"
 "http://www.w3.org/Graphics/SVG/1.1/DTD/svg11.dtd">
<!-- Generated by graphviz version 2.50.0 (0)
 -->
<!-- Pages: 1 -->
<svg width="535pt" height="185pt"
 viewBox="0.00 0.00 534.66 184.64" xmlns="http://www.w3.org/2000/svg" xmlns:xlink="http://www.w3.org/1999/xlink">
<g id="graph0" class="graph" transform="scale(1 1) rotate(0) translate(4 180.64)">
<polygon fill="white" stroke="transparent" points="-4,4 -4,-180.64 530.66,-180.64 530.66,4 -4,4"/>
<!-- 1 -->
<g id="node1" class="node">
<title>1</title>
<ellipse fill="none" stroke="blue" cx="74.09" cy="-74.09" rx="74.19" ry="74.19"/>
<text text-anchor="middle" x="74.09" y="-70.39" font-family="Times,serif" font-size="14.00">New entrants</text>
</g>
<!-- 2 -->
<g id="node2" class="node">
<title>2</title>
<ellipse fill="none" stroke="black" cx="263.73" cy="-74.09" rx="69.59" ry="69.59"/>
<text text-anchor="middle" x="263.73" y="-70.39" font-family="Times,serif" font-size="14.00">Unemployed</text>
</g>
<!-- 1&#45;&gt;2 -->
<g id="edge1" class="edge">
<title>1&#45;&gt;2</title>
<path fill="none" stroke="black" d="M148.45,-74.09C160.05,-74.09 172.1,-74.09 183.83,-74.09"/>
<polygon fill="black" stroke="black" points="184.03,-77.59 194.03,-74.09 184.03,-70.59 184.03,-77.59"/>
<text text-anchor="middle" x="171.19" y="-77.89" font-family="Times,serif" font-size="14.00">b</text>
</g>
<!-- 2&#45;&gt;2 -->
<g id="edge4" class="edge">
<title>2&#45;&gt;2</title>
<path fill="none" stroke="black" d="M247.63,-142C249.83,-153.6 255.2,-161.64 263.73,-161.64 269.6,-161.64 273.97,-157.84 276.84,-151.69"/>
<polygon fill="black" stroke="black" points="280.23,-152.59 279.83,-142 273.54,-150.52 280.23,-152.59"/>
<text text-anchor="middle" x="263.73" y="-165.44" font-family="Times,serif" font-size="14.00">(1&#45;λ)(1&#45;d)</text>
</g>
<!-- 3 -->
<g id="node3" class="node">
<title>3</title>
<ellipse fill="none" stroke="black" cx="469.47" cy="-74.09" rx="57.39" ry="57.39"/>
<text text-anchor="middle" x="469.47" y="-70.39" font-family="Times,serif" font-size="14.00">Employed</text>
</g>
<!-- 2&#45;&gt;3 -->
<g id="edge2" class="edge">
<title>2&#45;&gt;3</title>
<path fill="none" stroke="black" d="M333.42,-74.09C355.56,-74.09 380.05,-74.09 402.02,-74.09"/>
<polygon fill="black" stroke="black" points="402.26,-77.59 412.26,-74.09 402.26,-70.59 402.26,-77.59"/>
<text text-anchor="middle" x="372.77" y="-77.89" font-family="Times,serif" font-size="14.00">λ(1&#45;d)</text>
</g>
<!-- 3&#45;&gt;2 -->
<g id="edge3" class="edge">
<title>3&#45;&gt;2</title>
<path fill="none" stroke="black" d="M414.07,-58.51C407.45,-57.11 400.74,-55.91 394.27,-55.09 377.21,-52.94 358.92,-53.72 341.62,-55.89"/>
<polygon fill="black" stroke="black" points="340.97,-52.45 331.56,-57.31 341.95,-59.38 340.97,-52.45"/>
<text text-anchor="middle" x="372.77" y="-58.89" font-family="Times,serif" font-size="14.00">α(1&#45;d)</text>
</g>
<!-- 3&#45;&gt;3 -->
<g id="edge5" class="edge">
<title>3&#45;&gt;3</title>
<path fill="none" stroke="black" d="M452,-128.84C453.71,-140.69 459.53,-149.29 469.47,-149.29 476.3,-149.29 481.19,-145.23 484.13,-138.84"/>
<polygon fill="black" stroke="black" points="487.6,-139.42 486.94,-128.84 480.86,-137.52 487.6,-139.42"/>
<text text-anchor="middle" x="469.47" y="-153.09" font-family="Times,serif" font-size="14.00">(1&#45;α)(1&#45;d)</text>
</g>
</g>
</svg>